<?xml version="1.0" standalone="no"?>
<!DOCTYPE svg PUBLIC "-//W3C//DTD SVG 1.1//EN" "http://www.w3.org/Graphics/SVG/1.1/DTD/svg11.dtd">
<svg width="100%" height="100%" viewBox="0 0 110 37" version="1.1" xmlns="http://www.w3.org/2000/svg" xmlns:xlink="http://www.w3.org/1999/xlink" xml:space="preserve" style="fill-rule:evenodd;clip-rule:evenodd;stroke-linejoin:round;stroke-miterlimit:1.41421;">
    <g transform="matrix(1,0,0,1,-854.906,-711.177)">
        <g transform="matrix(1.90422,1.99e-31,0,1.90422,492.033,-707.967)">
            <g transform="matrix(0.815233,0,0,0.815233,31.0696,141.13)">
                <g transform="matrix(1,0,0,1,0,0.0571536)">
                    <path d="M266,746.75C266,743.576 263.424,741 260.25,741L204.75,741C201.576,741 199,743.576 199,746.75L199,758.25C199,761.424 201.576,764 204.75,764L260.25,764C263.424,764 266,761.424 266,758.25L266,746.75Z" style="fill:rgb(139,25,25);"/>
                    <clipPath id="_clip1">
                        <path d="M266,746.75C266,743.576 263.424,741 260.25,741L204.75,741C201.576,741 199,743.576 199,746.75L199,758.25C199,761.424 201.576,764 204.75,764L260.25,764C263.424,764 266,761.424 266,758.25L266,746.75Z"/>
                    </clipPath>
                    <g clip-path="url(#_clip1)">
                        <g transform="matrix(0.850434,0,0,0.850434,29.5751,110.737)">
                            <text x="205.183px" y="761.09px" style="font-family:'Seravek-Bold';font-size:20px;fill:rgb(226,90,90);">PLEASE</text>
                        </g>
                    </g>
                </g>
                <path d="M199,759.182C199,759.182 198.397,762.54 196,764C193.603,765.46 204,764 204,764L199,759.182Z" style="fill:rgb(139,25,25);"/>
            </g>
        </g>
    </g>
</svg>
